<svg width="18" height="18" viewBox="0 0 18 18" xmlns="http://www.w3.org/2000/svg">
  <g id="Page-1" fill="none" fillRule="evenodd">
    <g id="earth" fillRule="nonzero" fill="#FFF">
      <path d="M15.3639884,2.6360454 C17.0638757,4.33593271 18,6.59603662 18,9.00005063 C18,11.4040309 17.0638082,13.664101 15.3639884,15.3639884 C13.6640673,17.0638419 11.4039971,18 9.00001688,18 C6.59603662,18 4.33593271,17.0638419 2.6360454,15.3639884 C0.936158085,13.664101 0,11.4039971 0,9.00005063 C0,6.59607037 0.936090585,4.33593271 2.63601165,2.6360454 C4.33593271,0.936158085 6.59603662,0 9.00001688,0 C11.4039971,0 13.6640673,0.936158085 15.3639884,2.6360454 Z M14.5684666,14.5685004 C15.6769185,13.4600484 16.4139515,12.0793013 16.7178704,10.5771554 C16.4809791,10.9258268 16.2544152,11.0552244 16.1141501,10.2747214 C15.9696662,9.00224438 14.800903,9.81511363 14.0659288,9.3630996 C13.2924121,9.88443618 11.5539147,8.34951897 11.8493624,10.0807263 C12.3052239,10.8616005 14.3104477,9.03569065 13.3109746,10.6878892 C12.6733354,11.8413299 10.9793544,14.3956665 11.199742,15.7197811 C11.2275183,17.6488648 9.22860577,16.1220476 8.53990284,15.4821472 C8.0766163,14.2003551 8.38202024,11.9599275 7.17059698,11.3321771 C5.85572991,11.2751058 4.72716295,11.155597 4.21757139,9.68564855 C3.91091869,8.63396415 4.54390034,7.06836817 5.67091479,6.82668427 C7.32061583,5.79018737 7.90992494,8.04050378 9.45709341,8.0823538 C9.93745746,7.57971474 11.2468233,7.41990839 11.3553971,6.85628304 C10.340264,6.67713792 12.6432979,6.00271125 11.2582308,5.61910851 C10.4940628,5.70898482 10.0017513,6.41142401 10.4079665,7.00704438 C8.92721808,7.3523071 8.8797993,4.86418804 7.45639216,5.64901103 C7.42021214,6.88983056 5.13219696,6.05127753 6.66475167,5.79967112 C7.19131949,5.56963098 5.80588113,4.90293306 6.55435535,5.02409564 C6.92202808,5.00411563 8.1598101,4.57036036 7.82484114,4.27876017 C8.51405032,3.85091116 9.09326818,5.30337706 9.76789735,4.24568515 C10.2549439,3.4324109 9.56364223,3.28225705 8.9531381,3.69447981 C8.60895538,3.30912207 9.56084098,2.4767453 10.4004065,2.11707132 C10.6801942,1.99719125 10.9474268,1.93188496 11.1517832,1.95037997 C11.5747047,2.43891152 12.3567602,2.52352283 12.397699,1.89162118 C11.3504021,1.39006212 10.1956114,1.1250907 9.00001688,1.1250907 C7.28399705,1.1250907 5.65191353,1.67042354 4.30123769,2.67880667 C4.66421917,2.84509303 4.87026304,3.05214941 4.52057908,3.31681707 C4.24889141,4.12637883 3.14651447,5.21309576 2.17876636,5.05922941 C1.6762623,5.92572745 1.34534334,6.8804143 1.203897,7.88100118 C2.01443751,8.14917884 2.20134513,8.67993167 2.02719502,8.85745679 C1.61419601,9.21760326 1.36032835,9.72810608 1.22958077,10.2869389 C1.49340468,11.9012699 2.25213891,13.3890384 3.43160089,14.5685341 C4.91893057,16.0558638 6.89647931,16.8750105 9.00001688,16.8750105 C11.1034869,16.8750105 13.0810694,16.0558638 14.5684666,14.5685004 Z"
            id="Shape" />
    </g>
  </g>
</svg>
